<?xml version="1.0" standalone="no"?><!DOCTYPE svg PUBLIC "-//W3C//DTD SVG 1.1//EN" "http://www.w3.org/Graphics/SVG/1.1/DTD/svg11.dtd"><svg class="icon" width="200px" height="200.00px" viewBox="0 0 1024 1024" version="1.1" xmlns="http://www.w3.org/2000/svg"><path d="M0 0h1024v1024H0V0z" fill="#202425" opacity=".01" /><path d="M102.4 477.866667a34.133333 34.133333 0 0 1 34.133333-34.133334h750.933334a34.133333 34.133333 0 0 1 34.133333 34.133334v443.733333a34.133333 34.133333 0 0 1-34.133333 34.133333H136.533333a34.133333 34.133333 0 0 1-34.133333-34.133333V477.866667z" fill="#11AA66" /><path d="M163.259733 92.3648A34.133333 34.133333 0 0 1 195.8912 68.266667H828.074667a34.133333 34.133333 0 0 1 32.631466 24.098133l122.333867 397.550933a17.066667 17.066667 0 0 1-16.315733 22.084267H57.2416a17.066667 17.066667 0 0 1-16.315733-22.084267L163.259733 92.3648z" fill="#FFAA44" /><path d="M238.933333 307.2a34.133333 34.133333 0 0 0 0 68.266667h546.133334a34.133333 34.133333 0 1 0 0-68.266667H238.933333z m170.666667 375.466667a34.133333 34.133333 0 0 0-34.133333 34.133333v238.933333h273.066666v-238.933333a34.133333 34.133333 0 0 0-34.133333-34.133333h-204.8z" fill="#FFFFFF" /></svg>